<mxfile host="app.diagrams.net" agent="Mozilla/5.0 (iPad; CPU OS 18_1_1 like Mac OS X) AppleWebKit/605.1.15 (KHTML, like Gecko) CriOS/131.0.6778.154 Mobile/15E148 Safari/604.1" version="25.0.3">
  <diagram name="페이지-1" id="y0vsGkVyrcmLBu9hRTRk">
    <mxGraphModel>
      <root>
        <mxCell id="0" />
        <mxCell id="1" parent="0" />
      </root>
    </mxGraphModel>
  </diagram>
</mxfile>
